<svg id="Group_75" data-name="Group 75" xmlns="http://www.w3.org/2000/svg" width="200" height="200" viewBox="0 0 200 200">
  <g id="Group_77" data-name="Group 77">
    <circle id="Ellipse_31" data-name="Ellipse 31" cx="100" cy="100" r="100" fill="#e3741f"/>
    <g id="Group_76" data-name="Group 76" transform="translate(9.979 4.569)">
      <path id="Path_24" data-name="Path 24" d="M44.168,60H85.853a4.168,4.168,0,0,1,4.168,4.168V89.179a4.168,4.168,0,0,1-4.168,4.168H69.179l-8.337,8.337V93.347H44.168A4.168,4.168,0,0,1,40,89.179V64.168A4.168,4.168,0,0,1,44.168,60Z" transform="translate(0 0)" fill="#fff"/>
      <text id="A" transform="translate(57 81)" fill="#e3741f" font-size="16" font-family="Arial-BoldMT, Arial" font-weight="700"><tspan x="0" y="0">A</tspan></text>
      <path id="Path_25" data-name="Path 25" d="M104.168,95h41.684a4.168,4.168,0,0,1,4.168,4.168v25.011a4.168,4.168,0,0,1-4.168,4.168H129.179l-8.337,8.337v-8.337H104.168A4.168,4.168,0,0,1,100,124.179V99.168A4.168,4.168,0,0,1,104.168,95Z" transform="translate(-9.979 -5.822)" fill="#fff"/>
      <text id="文" transform="translate(108 110)" fill="#e3741f" font-size="16" font-family="PingFangSC-Semibold, PingFang SC" font-weight="600"><tspan x="0" y="0">文</tspan></text>
    </g>
  </g>
</svg>
